<svg width="128" height="128" xmlns="http://www.w3.org/2000/svg">
 <g>
  <title>background</title>
  <rect x="-1" y="-1" width="130" height="130" id="canvas_background" fill="none"/>
 </g>

 <g>
  <title>Layer 1</title>
  <path fill="#0288d1" stroke-width="null" d="m43.11852,83.76926l32.48765,0l10.82924,14.11125l-10.82924,14.11132l-32.48765,0l10.82923,-14.11132l-10.82923,-14.11125z" id="svg_5" transform="rotate(-90 64.77696418762207,97.88054275512695)" stroke="#006aa3"/>
  <rect fill="#d19155" x="61.813798" y="22.236655" width="5.60606" height="92.828908" id="svg_4" stroke="#7c542e"/>
  <path fill="#0288d1" d="m61.07319,32.79125c-0.84978,-0.79728 -0.73829,-1.28007 1.32778,-5.74933c1.04326,-2.25675 1.89683,-4.16876 1.89683,-4.24891c0,-0.08015 -2.8808,-0.14573 -6.40181,-0.14573l-6.40182,0l0,-4.22666l0,-4.22665l6.45256,0c4.97528,0 6.39701,-0.12733 6.20998,-0.55614c-0.13342,-0.30588 -1.0435,-2.33562 -2.02241,-4.51054c-1.84526,-4.09976 -1.84468,-5.19922 0.00285,-5.54001c0.91945,-0.16959 15.23413,12.8611 15.72616,14.31558c-4.7681,5.19326 -10.46759,10.62927 -15.71775,15.42229c-0.27683,0 -0.75939,-0.24026 -1.07237,-0.5339l0,0z" id="svg_2" transform="rotate(-90 64.67874145507814,18.455394744873043) " stroke="#006aa3"/>
 </g>
</svg>