<svg width="300" height="300" xmlns="http://www.w3.org/2000/svg">
 <!-- Created with SVG Editor - http://github.com/mzalive/SVG Editor/ -->
 <g>
  <title>Layer 1</title>
  <path stroke="#cccccc" transform="rotate(-125 144.95870971679688,140.21070861816406) " id="svg_16" d="m126.578122,71.269959c-5.741947,-0.439802 -16.07712,6.160887 -13.772621,-5.121095c3.995072,-6.923794 14.811807,-3.631864 13.58221,4.436718l0.140421,0.504704l0.04999,0.179673l0,0zm13.888412,-14.965997c-5.48037,9.387153 -17.82715,10.058447 -27.097859,13.554591c-4.293773,2.462858 -21.701463,4.063461 -15.073108,-3.455379c9.465684,-6.274582 21.108092,-7.789164 31.76539,-11.210623c3.431388,-0.806439 7.411693,-1.123038 10.405577,1.111411zm-28.345249,9.927679c-4.18062,-14.34878 -8.361224,-28.697535 -12.541835,-43.046314c5.114307,-6.956977 16.390191,-3.940032 14.828071,5.333459c3.25021,11.15539 6.500411,22.31082 9.750613,33.466242m-4.504558,7.550025c18.260697,63.991065 39.495738,127.229953 66.031661,188.297839m-61.210131,-189.962624c18.447159,60.220293 37.325883,120.503764 62.789454,178.201831c0.350503,4.470395 11.978912,17.873576 1.436595,14.415122c-3.278312,-1.57098 -8.877305,-0.502786 -9.484594,-5.111782c-24.875685,-60.119852 -46.443516,-121.604834 -64.668173,-184.062067" fill-opacity="null" stroke-opacity="null" stroke-width="null" fill="#cccccc"/>
  <path stroke="#cccccc" transform="rotate(165 150.15945434570312,138.50663757324222) " id="svg_19" d="m131.37072,68.035077c-5.869445,-0.449568 -16.434109,6.297689 -14.078439,-5.234808c4.083782,-7.077535 15.1407,-3.712509 13.883801,4.535234l0.14354,0.51591l0.051099,0.183664l0,0zm14.196803,-15.298314c-5.602061,9.595593 -18.223,10.281792 -27.699563,13.855568c-4.389116,2.517545 -22.183341,4.153689 -15.407805,-3.532106c9.675868,-6.413907 21.576794,-7.96212 32.470736,-11.459552c3.507581,-0.824346 7.576268,-1.147976 10.636632,1.136089zm-28.974652,10.148121c-4.27345,-14.667392 -8.546883,-29.334759 -12.820325,-44.00215c5.22787,-7.111456 16.754133,-4.02752 15.157326,5.451887c3.32238,11.403093 6.644752,22.806227 9.967123,34.209354m-4.604581,7.717672c18.666172,65.411977 40.372733,130.055074 67.497883,192.478962m-62.569292,-194.180714c18.856775,61.557474 38.154698,123.179531 64.183683,182.158773c0.358285,4.56966 12.244902,18.270457 1.468495,14.735209c-3.351106,-1.605864 -9.074423,-0.513951 -9.695198,-5.225289c-25.428046,-61.454803 -47.474788,-124.30505 -66.10412,-188.149136" fill-opacity="null" stroke-opacity="null" stroke-width="null" fill="#cccccc"/>
 </g>
</svg>