<svg width="1000" height="1000" xmlns="http://www.w3.org/2000/svg">
 <!-- Created with SVG Editor - http://github.com/mzalive/SVG Editor/ -->

 <g>
  <title>background</title>
  <rect fill="none" id="canvas_background" height="1002" width="1002" y="-1" x="-1"/>
  <g display="none" id="canvasGrid">
   <rect fill="url(#gridpattern)" stroke-width="0" y="0" x="0" height="100%" width="100%" id="svg_2"/>
  </g>
 </g>
 <g>
  <title>Layer 1</title>
  <rect x="0" y="0" id="svg_1" height="50" width="50" stroke="#666666" fill="#638964"/>
  <rect id="svg_3" height="50" width="50" y="0" x="50" stroke="#666666" fill="#638964"/>
  <rect x="150" y="0" id="svg_4" height="50" width="50" stroke="#666666" fill="#638964"/>
  <rect id="svg_5" height="50" width="50" y="0" x="100" stroke="#666666" fill="#638964"/>
  <rect x="200.002459" y="0" id="svg_6" height="50" width="50" stroke="#666666" fill="#638964"/>
  <rect id="svg_7" height="50" width="50" y="0" x="250.002459" stroke="#666666" fill="#638964"/>
  <rect x="350.002459" y="0" id="svg_8" height="50" width="50" stroke="#666666" fill="#638964"/>
  <rect id="svg_9" height="50" width="50" y="0" x="300.002459" stroke="#666666" fill="#638964"/>
  <rect x="399.997711" y="0" id="svg_10" height="50" width="50" stroke="#666666" fill="#638964"/>
  <rect id="svg_11" height="50" width="50" y="0" x="449.997711" stroke="#666666" fill="#638964"/>
  <rect x="549.997711" y="0" id="svg_12" height="50" width="50" stroke="#666666" fill="#638964"/>
  <rect id="svg_13" height="50" width="50" y="0" x="499.997711" stroke="#666666" fill="#638964"/>
  <rect x="600.00017" y="0" id="svg_14" height="50" width="50" stroke="#666666" fill="#638964"/>
  <rect id="svg_15" height="50" width="50" y="0" x="650.00017" stroke="#666666" fill="#638964"/>
  <rect x="750.00017" y="0" id="svg_16" height="50" width="50" stroke="#666666" fill="#638964"/>
  <rect id="svg_17" height="50" width="50" y="0" x="700.00017" stroke="#666666" fill="#638964"/>
  <rect x="799.999025" y="0" id="svg_18" height="50" width="50" stroke="#666666" fill="#638964"/>
  <rect id="svg_19" height="50" width="50" y="0" x="849.999025" stroke="#666666" fill="#638964"/>
  <rect x="949.999025" y="0" id="svg_20" height="50" width="50" stroke="#666666" fill="#638964"/>
  <rect id="svg_21" height="50" width="50" y="0" x="899.999025" stroke="#666666" fill="#638964"/>
  <rect x="0" y="50" id="svg_22" height="50" width="50" stroke="#666666" fill="#638964"/>
  <rect id="svg_23" height="50" width="50" y="50" x="50" stroke="#666666" fill="#638964"/>
  <rect x="150" y="50" id="svg_24" height="50" width="50" stroke="#666666" fill="#638964"/>
  <rect id="svg_25" height="50" width="50" y="50" x="100" stroke="#666666" fill="#638964"/>
  <rect x="200.002459" y="50" id="svg_26" height="50" width="50" stroke="#666666" fill="#638964"/>
  <rect id="svg_27" height="50" width="50" y="50" x="250.002459" stroke="#666666" fill="#638964"/>
  <rect x="350.002459" y="50" id="svg_28" height="50" width="50" stroke="#666666" fill="#638964"/>
  <rect id="svg_29" height="50" width="50" y="50" x="300.002459" stroke="#666666" fill="#638964"/>
  <rect x="399.997711" y="50" id="svg_30" height="50" width="50" stroke="#666666" fill="#638964"/>
  <rect id="svg_31" height="50" width="50" y="50" x="450" stroke="#666666" fill="#638964"/>
  <rect x="549.997711" y="50" id="svg_32" height="50" width="50" stroke="#666666" fill="#638964"/>
  <rect id="svg_33" height="50" width="50" y="50" x="499.997711" stroke="#666666" fill="#638964"/>
  <rect x="600.00017" y="50" id="svg_34" height="50" width="50" stroke="#666666" fill="#638964"/>
  <rect id="svg_35" height="50" width="50" y="50" x="650.00017" stroke="#666666" fill="#638964"/>
  <rect x="750.00017" y="50" id="svg_36" height="50" width="50" stroke="#666666" fill="#638964"/>
  <rect id="svg_37" height="50" width="50" y="50" x="700.00017" stroke="#666666" fill="#638964"/>
  <rect x="799.999025" y="50" id="svg_38" height="50" width="50" stroke="#666666" fill="#638964"/>
  <rect id="svg_39" height="50" width="50" y="50" x="849.999025" stroke="#666666" fill="#638964"/>
  <rect x="949.999025" y="50" id="svg_40" height="50" width="50" stroke="#666666" fill="#638964"/>
  <rect id="svg_41" height="50" width="50" y="50" x="899.999025" stroke="#666666" fill="#638964"/>
  <rect x="0" y="99.999977" id="svg_42" height="50" width="50" stroke="#666666" fill="#638964"/>
  <rect id="svg_43" height="50" width="50" y="99.999977" x="50" stroke="#666666" fill="#638964"/>
  <rect x="150" y="99.999977" id="svg_44" height="50" width="50" stroke="#666666" fill="#638964"/>
  <rect id="svg_45" height="50" width="50" y="99.999977" x="100" stroke="#666666" fill="#638964"/>
  <rect x="200.002459" y="99.999977" id="svg_46" height="50" width="50" stroke="#666666" fill="#638964"/>
  <rect id="svg_47" height="50" width="50" y="99.999977" x="250.002459" stroke="#666666" fill="#638964"/>
  <rect x="350.002459" y="99.999977" id="svg_48" height="50" width="50" stroke="#666666" fill="#638964"/>
  <rect id="svg_49" height="50" width="50" y="99.999977" x="300.002459" stroke="#666666" fill="#638964"/>
  <rect x="399.997711" y="99.999977" id="svg_50" height="50" width="50" stroke="#666666" fill="#638964"/>
  <rect id="svg_51" height="50" width="50" y="99.999977" x="449.997711" stroke="#666666" fill="#638964"/>
  <rect x="549.997711" y="99.999977" id="svg_52" height="50" width="50" stroke="#666666" fill="#638964"/>
  <rect id="svg_53" height="50" width="50" y="99.999977" x="499.997711" stroke="#666666" fill="#638964"/>
  <rect x="600.00017" y="99.999977" id="svg_54" height="50" width="50" stroke="#666666" fill="#638964"/>
  <rect id="svg_55" height="50" width="50" y="99.999977" x="650.00017" stroke="#666666" fill="#638964"/>
  <rect x="750.00017" y="99.999977" id="svg_56" height="50" width="50" stroke="#666666" fill="#638964"/>
  <rect id="svg_57" height="50" width="50" y="99.999977" x="700.00017" stroke="#666666" fill="#638964"/>
  <rect x="799.999025" y="99.999977" id="svg_58" height="50" width="50" stroke="#666666" fill="#638964"/>
  <rect id="svg_59" height="50" width="50" y="99.999977" x="849.999025" stroke="#666666" fill="#638964"/>
  <rect x="949.999025" y="99.999977" id="svg_60" height="50" width="50" stroke="#666666" fill="#638964"/>
  <rect id="svg_61" height="50" width="50" y="99.999977" x="899.999025" stroke="#666666" fill="#638964"/>
  <rect x="0" y="149.999977" id="svg_62" height="50" width="50" stroke="#666666" fill="#638964"/>
  <rect id="svg_63" height="50" width="50" y="149.999977" x="50" stroke="#666666" fill="#638964"/>
  <rect x="150" y="149.999977" id="svg_64" height="50" width="50" stroke="#666666" fill="#638964"/>
  <rect id="svg_65" height="50" width="50" y="149.999977" x="100" stroke="#666666" fill="#638964"/>
  <rect x="200.002459" y="149.999977" id="svg_66" height="50" width="50" stroke="#666666" fill="#638964"/>
  <rect id="svg_67" height="50" width="50" y="149.999977" x="250.002459" stroke="#666666" fill="#638964"/>
  <rect x="350.002459" y="149.999977" id="svg_68" height="50" width="50" stroke="#666666" fill="#638964"/>
  <rect id="svg_69" height="50" width="50" y="149.999977" x="300.002459" stroke="#666666" fill="#638964"/>
  <rect x="399.997711" y="149.999977" id="svg_70" height="50" width="50" stroke="#666666" fill="#638964"/>
  <rect id="svg_71" height="50" width="50" y="149.999977" x="450" stroke="#666666" fill="#638964"/>
  <rect x="549.997711" y="149.999977" id="svg_72" height="50" width="50" stroke="#666666" fill="#638964"/>
  <rect id="svg_73" height="50" width="50" y="149.999977" x="499.997711" stroke="#666666" fill="#638964"/>
  <rect x="600.00017" y="149.999977" id="svg_74" height="50" width="50" stroke="#666666" fill="#638964"/>
  <rect id="svg_75" height="50" width="50" y="149.999977" x="650.00017" stroke="#666666" fill="#638964"/>
  <rect x="750.00017" y="149.999977" id="svg_76" height="50" width="50" stroke="#666666" fill="#638964"/>
  <rect id="svg_77" height="50" width="50" y="149.999977" x="700.00017" stroke="#666666" fill="#638964"/>
  <rect x="799.999025" y="149.999977" id="svg_78" height="50" width="50" stroke="#666666" fill="#638964"/>
  <rect id="svg_79" height="50" width="50" y="149.999977" x="849.999025" stroke="#666666" fill="#638964"/>
  <rect x="949.999025" y="149.999977" id="svg_80" height="50" width="50" stroke="#666666" fill="#638964"/>
  <rect id="svg_81" height="50" width="50" y="149.999977" x="899.999025" stroke="#666666" fill="#638964"/>
  <rect x="0" y="199.834901" id="svg_82" height="50" width="50" stroke="#666666" fill="#638964"/>
  <rect id="svg_83" height="50" width="50" y="199.834901" x="50" stroke="#666666" fill="#638964"/>
  <rect x="150" y="199.834901" id="svg_84" height="50" width="50" stroke="#666666" fill="#638964"/>
  <rect id="svg_85" height="50" width="50" y="199.834901" x="100" stroke="#666666" fill="#638964"/>
  <rect x="200.002459" y="199.834901" id="svg_86" height="50" width="50" stroke="#666666" fill="#638964"/>
  <rect id="svg_87" height="50" width="50" y="199.834901" x="250.002459" stroke="#666666" fill="#638964"/>
  <rect x="350.002459" y="199.834901" id="svg_88" height="50" width="50" stroke="#666666" fill="#638964"/>
  <rect id="svg_89" height="50" width="50" y="199.834901" x="300.002459" stroke="#666666" fill="#638964"/>
  <rect x="399.997711" y="199.834901" id="svg_90" height="50" width="50" stroke="#666666" fill="#638964"/>
  <rect id="svg_91" height="50" width="50" y="199.834901" x="449.997711" stroke="#666666" fill="#638964"/>
  <rect x="549.997711" y="199.834901" id="svg_92" height="50" width="50" stroke="#666666" fill="#638964"/>
  <rect id="svg_93" height="50" width="50" y="199.834901" x="499.997711" stroke="#666666" fill="#638964"/>
  <rect x="600.00017" y="199.834901" id="svg_94" height="50" width="50" stroke="#666666" fill="#638964"/>
  <rect id="svg_95" height="50" width="50" y="199.834901" x="650.00017" stroke="#666666" fill="#638964"/>
  <rect x="750.00017" y="199.834901" id="svg_96" height="50" width="50" stroke="#666666" fill="#638964"/>
  <rect id="svg_97" height="50" width="50" y="199.834901" x="700.00017" stroke="#666666" fill="#638964"/>
  <rect x="799.999025" y="199.834901" id="svg_98" height="50" width="50" stroke="#666666" fill="#638964"/>
  <rect id="svg_99" height="50" width="50" y="199.834901" x="849.999025" stroke="#666666" fill="#638964"/>
  <rect x="949.999025" y="199.834901" id="svg_100" height="50" width="50" stroke="#666666" fill="#638964"/>
  <rect id="svg_101" height="50" width="50" y="199.834901" x="899.999025" stroke="#666666" fill="#638964"/>
  <rect x="0" y="249.834901" id="svg_102" height="50" width="50" stroke="#666666" fill="#638964"/>
  <rect id="svg_103" height="50" width="50" y="249.834901" x="50" stroke="#666666" fill="#638964"/>
  <rect x="150" y="249.834901" id="svg_104" height="50" width="50" stroke="#666666" fill="#638964"/>
  <rect id="svg_105" height="50" width="50" y="249.834901" x="100" stroke="#666666" fill="#638964"/>
  <rect x="200.002459" y="249.834901" id="svg_106" height="50" width="50" stroke="#666666" fill="#638964"/>
  <rect id="svg_107" height="50" width="50" y="249.834901" x="250.002459" stroke="#666666" fill="#638964"/>
  <rect x="350.002459" y="249.834901" id="svg_108" height="50" width="50" stroke="#666666" fill="#638964"/>
  <rect id="svg_109" height="50" width="50" y="249.834901" x="300.002459" stroke="#666666" fill="#638964"/>
  <rect x="399.997711" y="249.834901" id="svg_110" height="50" width="50" stroke="#666666" fill="#638964"/>
  <rect id="svg_111" height="50" width="50" y="249.834901" x="450" stroke="#666666" fill="#638964"/>
  <rect x="549.997711" y="249.834901" id="svg_112" height="50" width="50" stroke="#666666" fill="#638964"/>
  <rect id="svg_113" height="50" width="50" y="249.834901" x="499.997711" stroke="#666666" fill="#638964"/>
  <rect x="600.00017" y="249.834901" id="svg_114" height="50" width="50" stroke="#666666" fill="#638964"/>
  <rect id="svg_115" height="50" width="50" y="249.834901" x="650.00017" stroke="#666666" fill="#638964"/>
  <rect x="750.00017" y="249.834901" id="svg_116" height="50" width="50" stroke="#666666" fill="#638964"/>
  <rect id="svg_117" height="50" width="50" y="249.834901" x="700.00017" stroke="#666666" fill="#638964"/>
  <rect x="799.999025" y="249.834901" id="svg_118" height="50" width="50" stroke="#666666" fill="#638964"/>
  <rect id="svg_119" height="50" width="50" y="249.834901" x="849.999025" stroke="#666666" fill="#638964"/>
  <rect x="949.999025" y="249.834901" id="svg_120" height="50" width="50" stroke="#666666" fill="#638964"/>
  <rect id="svg_121" height="50" width="50" y="249.834901" x="899.999025" stroke="#666666" fill="#638964"/>
  <rect x="0" y="299.834878" id="svg_122" height="50" width="50" stroke="#666666" fill="#638964"/>
  <rect id="svg_123" height="50" width="50" y="299.834878" x="50" stroke="#666666" fill="#638964"/>
  <rect x="150" y="299.834878" id="svg_124" height="50" width="50" stroke="#666666" fill="#638964"/>
  <rect id="svg_125" height="50" width="50" y="299.834878" x="100" stroke="#666666" fill="#638964"/>
  <rect x="200.002459" y="299.834878" id="svg_126" height="50" width="50" stroke="#666666" fill="#638964"/>
  <rect id="svg_127" height="50" width="50" y="299.834878" x="250.002459" stroke="#666666" fill="#638964"/>
  <rect x="350.002459" y="299.834878" id="svg_128" height="50" width="50" stroke="#666666" fill="#638964"/>
  <rect id="svg_129" height="50" width="50" y="299.834878" x="300.002459" stroke="#666666" fill="#638964"/>
  <rect x="399.997711" y="299.834878" id="svg_130" height="50" width="50" stroke="#666666" fill="#638964"/>
  <rect id="svg_131" height="50" width="50" y="299.834878" x="449.997711" stroke="#666666" fill="#638964"/>
  <rect x="549.997711" y="299.834878" id="svg_132" height="50" width="50" stroke="#666666" fill="#638964"/>
  <rect id="svg_133" height="50" width="50" y="299.834878" x="499.997711" stroke="#666666" fill="#638964"/>
  <rect x="600.00017" y="299.834878" id="svg_134" height="50" width="50" stroke="#666666" fill="#638964"/>
  <rect id="svg_135" height="50" width="50" y="299.834878" x="650.00017" stroke="#666666" fill="#638964"/>
  <rect x="750.00017" y="299.834878" id="svg_136" height="50" width="50" stroke="#666666" fill="#638964"/>
  <rect id="svg_137" height="50" width="50" y="299.834878" x="700.00017" stroke="#666666" fill="#638964"/>
  <rect x="799.999025" y="299.834878" id="svg_138" height="50" width="50" stroke="#666666" fill="#638964"/>
  <rect id="svg_139" height="50" width="50" y="299.834878" x="849.999025" stroke="#666666" fill="#638964"/>
  <rect x="949.999025" y="299.834878" id="svg_140" height="50" width="50" stroke="#666666" fill="#638964"/>
  <rect id="svg_141" height="50" width="50" y="299.834878" x="899.999025" stroke="#666666" fill="#638964"/>
  <rect x="0" y="349.834878" id="svg_142" height="50" width="50" stroke="#666666" fill="#638964"/>
  <rect id="svg_143" height="50" width="50" y="349.834878" x="50" stroke="#666666" fill="#638964"/>
  <rect x="150" y="349.834878" id="svg_144" height="50" width="50" stroke="#666666" fill="#638964"/>
  <rect id="svg_145" height="50" width="50" y="349.834878" x="100" stroke="#666666" fill="#638964"/>
  <rect x="200.002459" y="349.834878" id="svg_146" height="50" width="50" stroke="#666666" fill="#638964"/>
  <rect id="svg_147" height="50" width="50" y="349.834878" x="250.002459" stroke="#666666" fill="#638964"/>
  <rect x="350.002459" y="349.834878" id="svg_148" height="50" width="50" stroke="#666666" fill="#638964"/>
  <rect id="svg_149" height="50" width="50" y="349.834878" x="300.002459" stroke="#666666" fill="#638964"/>
  <rect x="399.997711" y="349.834878" id="svg_150" height="50" width="50" stroke="#666666" fill="#638964"/>
  <rect id="svg_151" height="50" width="50" y="349.834878" x="450" stroke="#666666" fill="#638964"/>
  <rect x="549.997711" y="349.834878" id="svg_152" height="50" width="50" stroke="#666666" fill="#638964"/>
  <rect id="svg_153" height="50" width="50" y="349.834878" x="499.997711" stroke="#666666" fill="#638964"/>
  <rect x="600.00017" y="349.834878" id="svg_154" height="50" width="50" stroke="#666666" fill="#638964"/>
  <rect id="svg_155" height="50" width="50" y="349.834878" x="650.00017" stroke="#666666" fill="#638964"/>
  <rect x="750.00017" y="349.834878" id="svg_156" height="50" width="50" stroke="#666666" fill="#638964"/>
  <rect id="svg_157" height="50" width="50" y="349.834878" x="700.00017" stroke="#666666" fill="#638964"/>
  <rect x="799.999025" y="349.834878" id="svg_158" height="50" width="50" stroke="#666666" fill="#638964"/>
  <rect id="svg_159" height="50" width="50" y="349.834878" x="849.999025" stroke="#666666" fill="#638964"/>
  <rect x="949.999025" y="349.834878" id="svg_160" height="50" width="50" stroke="#666666" fill="#638964"/>
  <rect id="svg_161" height="50" width="50" y="349.834878" x="899.999025" stroke="#666666" fill="#638964"/>
  <rect x="0" y="399.834855" id="svg_162" height="50" width="50" stroke="#666666" fill="#638964"/>
  <rect id="svg_163" height="50" width="50" y="399.834855" x="50" stroke="#666666" fill="#638964"/>
  <rect x="150" y="399.834855" id="svg_164" height="50" width="50" stroke="#666666" fill="#638964"/>
  <rect id="svg_165" height="50" width="50" y="399.834855" x="100" stroke="#666666" fill="#638964"/>
  <rect x="200.002459" y="399.834855" id="svg_166" height="50" width="50" stroke="#666666" fill="#638964"/>
  <rect id="svg_167" height="50" width="50" y="399.834855" x="250.002459" stroke="#666666" fill="#638964"/>
  <rect x="350.002459" y="399.834855" id="svg_168" height="50" width="50" stroke="#666666" fill="#638964"/>
  <rect id="svg_169" height="50" width="50" y="399.834855" x="300.002459" stroke="#666666" fill="#638964"/>
  <rect x="399.997711" y="399.834855" id="svg_170" height="50" width="50" stroke="#666666" fill="#638964"/>
  <rect id="svg_171" height="50" width="50" y="399.834855" x="449.997711" stroke="#666666" fill="#638964"/>
  <rect x="549.997711" y="399.834855" id="svg_172" height="50" width="50" stroke="#666666" fill="#638964"/>
  <rect id="svg_173" height="50" width="50" y="399.834855" x="499.997711" stroke="#666666" fill="#638964"/>
  <rect x="600.00017" y="399.834855" id="svg_174" height="50" width="50" stroke="#666666" fill="#638964"/>
  <rect id="svg_175" height="50" width="50" y="399.834855" x="650.00017" stroke="#666666" fill="#638964"/>
  <rect x="750.00017" y="399.834855" id="svg_176" height="50" width="50" stroke="#666666" fill="#638964"/>
  <rect id="svg_177" height="50" width="50" y="399.834855" x="700.00017" stroke="#666666" fill="#638964"/>
  <rect x="799.999025" y="399.834855" id="svg_178" height="50" width="50" stroke="#666666" fill="#638964"/>
  <rect id="svg_179" height="50" width="50" y="399.834855" x="849.999025" stroke="#666666" fill="#638964"/>
  <rect x="949.999025" y="399.834855" id="svg_180" height="50" width="50" stroke="#666666" fill="#638964"/>
  <rect id="svg_181" height="50" width="50" y="399.834855" x="899.999025" stroke="#666666" fill="#638964"/>
  <rect x="0" y="449.834855" id="svg_182" height="50" width="50" stroke="#666666" fill="#638964"/>
  <rect id="svg_183" height="50" width="50" y="449.834855" x="50" stroke="#666666" fill="#638964"/>
  <rect x="150" y="449.834855" id="svg_184" height="50" width="50" stroke="#666666" fill="#638964"/>
  <rect id="svg_185" height="50" width="50" y="449.834855" x="100" stroke="#666666" fill="#638964"/>
  <rect x="200.002459" y="449.834855" id="svg_186" height="50" width="50" stroke="#666666" fill="#638964"/>
  <rect id="svg_187" height="50" width="50" y="449.834855" x="250.002459" stroke="#666666" fill="#638964"/>
  <rect x="350.002459" y="449.834855" id="svg_188" height="50" width="50" stroke="#666666" fill="#638964"/>
  <rect id="svg_189" height="50" width="50" y="449.834855" x="300.002459" stroke="#666666" fill="#638964"/>
  <rect x="399.997711" y="449.834855" id="svg_190" height="50" width="50" stroke="#666666" fill="#638964"/>
  <rect id="svg_191" height="50" width="50" y="449.834855" x="450" stroke="#666666" fill="#638964"/>
  <rect x="549.997711" y="449.834855" id="svg_192" height="50" width="50" stroke="#666666" fill="#638964"/>
  <rect id="svg_193" height="50" width="50" y="449.834855" x="499.997711" stroke="#666666" fill="#638964"/>
  <rect x="600.00017" y="449.834855" id="svg_194" height="50" width="50" stroke="#666666" fill="#638964"/>
  <rect id="svg_195" height="50" width="50" y="449.834855" x="650.00017" stroke="#666666" fill="#638964"/>
  <rect x="750.00017" y="449.834855" id="svg_196" height="50" width="50" stroke="#666666" fill="#638964"/>
  <rect id="svg_197" height="50" width="50" y="449.834855" x="700.00017" stroke="#666666" fill="#638964"/>
  <rect x="799.999025" y="449.834855" id="svg_198" height="50" width="50" stroke="#666666" fill="#638964"/>
  <rect id="svg_199" height="50" width="50" y="449.834855" x="849.999025" stroke="#666666" fill="#638964"/>
  <rect x="949.999025" y="449.834855" id="svg_200" height="50" width="50" stroke="#666666" fill="#638964"/>
  <rect id="svg_201" height="50" width="50" y="449.834855" x="899.999025" stroke="#666666" fill="#638964"/>
  <rect x="0" y="499.834832" id="svg_202" height="50" width="50" stroke="#666666" fill="#638964"/>
  <rect id="svg_203" height="50" width="50" y="499.834832" x="50" stroke="#666666" fill="#638964"/>
  <rect x="150" y="499.834832" id="svg_204" height="50" width="50" stroke="#666666" fill="#638964"/>
  <rect id="svg_205" height="50" width="50" y="499.834832" x="100" stroke="#666666" fill="#638964"/>
  <rect x="200.002459" y="499.834832" id="svg_206" height="50" width="50" stroke="#666666" fill="#638964"/>
  <rect id="svg_207" height="50" width="50" y="499.834832" x="250.002459" stroke="#666666" fill="#638964"/>
  <rect x="350.002459" y="499.834832" id="svg_208" height="50" width="50" stroke="#666666" fill="#638964"/>
  <rect id="svg_209" height="50" width="50" y="499.834832" x="300.002459" stroke="#666666" fill="#638964"/>
  <rect x="399.997711" y="499.834832" id="svg_210" height="50" width="50" stroke="#666666" fill="#638964"/>
  <rect id="svg_211" height="50" width="50" y="499.834832" x="449.997711" stroke="#666666" fill="#638964"/>
  <rect x="549.997711" y="499.834832" id="svg_212" height="50" width="50" stroke="#666666" fill="#638964"/>
  <rect id="svg_213" height="50" width="50" y="499.834832" x="499.997711" stroke="#666666" fill="#638964"/>
  <rect x="600.00017" y="499.834832" id="svg_214" height="50" width="50" stroke="#666666" fill="#638964"/>
  <rect id="svg_215" height="50" width="50" y="499.834832" x="650.00017" stroke="#666666" fill="#638964"/>
  <rect x="750.00017" y="499.834832" id="svg_216" height="50" width="50" stroke="#666666" fill="#638964"/>
  <rect id="svg_217" height="50" width="50" y="499.834832" x="700.00017" stroke="#666666" fill="#638964"/>
  <rect x="799.999025" y="499.834832" id="svg_218" height="50" width="50" stroke="#666666" fill="#638964"/>
  <rect id="svg_219" height="50" width="50" y="499.834832" x="849.999025" stroke="#666666" fill="#638964"/>
  <rect x="949.999025" y="499.834832" id="svg_220" height="50" width="50" stroke="#666666" fill="#638964"/>
  <rect id="svg_221" height="50" width="50" y="499.834832" x="899.999025" stroke="#666666" fill="#638964"/>
  <rect x="0" y="549.834832" id="svg_222" height="50" width="50" stroke="#666666" fill="#638964"/>
  <rect id="svg_223" height="50" width="50" y="549.834832" x="50" stroke="#666666" fill="#638964"/>
  <rect x="150" y="549.834832" id="svg_224" height="50" width="50" stroke="#666666" fill="#638964"/>
  <rect id="svg_225" height="50" width="50" y="549.834832" x="100" stroke="#666666" fill="#638964"/>
  <rect x="200.002459" y="549.834832" id="svg_226" height="50" width="50" stroke="#666666" fill="#638964"/>
  <rect id="svg_227" height="50" width="50" y="549.834832" x="250.002459" stroke="#666666" fill="#638964"/>
  <rect x="350.002459" y="549.834832" id="svg_228" height="50" width="50" stroke="#666666" fill="#638964"/>
  <rect id="svg_229" height="50" width="50" y="549.834832" x="300.002459" stroke="#666666" fill="#638964"/>
  <rect x="399.997711" y="549.834832" id="svg_230" height="50" width="50" stroke="#666666" fill="#638964"/>
  <rect id="svg_231" height="50" width="50" y="549.834832" x="450" stroke="#666666" fill="#638964"/>
  <rect x="549.997711" y="549.834832" id="svg_232" height="50" width="50" stroke="#666666" fill="#638964"/>
  <rect id="svg_233" height="50" width="50" y="549.834832" x="499.997711" stroke="#666666" fill="#638964"/>
  <rect x="600.00017" y="549.834832" id="svg_234" height="50" width="50" stroke="#666666" fill="#638964"/>
  <rect id="svg_235" height="50" width="50" y="549.834832" x="650.00017" stroke="#666666" fill="#638964"/>
  <rect x="750.00017" y="549.834832" id="svg_236" height="50" width="50" stroke="#666666" fill="#638964"/>
  <rect id="svg_237" height="50" width="50" y="549.834832" x="700.00017" stroke="#666666" fill="#638964"/>
  <rect x="799.999025" y="549.834832" id="svg_238" height="50" width="50" stroke="#666666" fill="#638964"/>
  <rect id="svg_239" height="50" width="50" y="549.834832" x="849.999025" stroke="#666666" fill="#638964"/>
  <rect x="949.999025" y="549.834832" id="svg_240" height="50" width="50" stroke="#666666" fill="#638964"/>
  <rect id="svg_241" height="50" width="50" y="549.834832" x="899.999025" stroke="#666666" fill="#638964"/>
  <rect x="0" y="599.669756" id="svg_242" height="50" width="50" stroke="#666666" fill="#638964"/>
  <rect id="svg_243" height="50" width="50" y="599.669756" x="50" stroke="#666666" fill="#638964"/>
  <rect x="150" y="599.669756" id="svg_244" height="50" width="50" stroke="#666666" fill="#638964"/>
  <rect id="svg_245" height="50" width="50" y="599.669756" x="100" stroke="#666666" fill="#638964"/>
  <rect x="200.002459" y="599.669756" id="svg_246" height="50" width="50" stroke="#666666" fill="#638964"/>
  <rect id="svg_247" height="50" width="50" y="599.669756" x="250.002459" stroke="#666666" fill="#638964"/>
  <rect x="350.002459" y="599.669756" id="svg_248" height="50" width="50" stroke="#666666" fill="#638964"/>
  <rect id="svg_249" height="50" width="50" y="599.669756" x="300.002459" stroke="#666666" fill="#638964"/>
  <rect x="399.997711" y="599.669756" id="svg_250" height="50" width="50" stroke="#666666" fill="#638964"/>
  <rect id="svg_251" height="50" width="50" y="599.669756" x="449.997711" stroke="#666666" fill="#638964"/>
  <rect x="549.997711" y="599.669756" id="svg_252" height="50" width="50" stroke="#666666" fill="#638964"/>
  <rect id="svg_253" height="50" width="50" y="599.669756" x="499.997711" stroke="#666666" fill="#638964"/>
  <rect x="600.00017" y="599.669756" id="svg_254" height="50" width="50" stroke="#666666" fill="#638964"/>
  <rect id="svg_255" height="50" width="50" y="599.669756" x="650.00017" stroke="#666666" fill="#638964"/>
  <rect x="750.00017" y="599.669756" id="svg_256" height="50" width="50" stroke="#666666" fill="#638964"/>
  <rect id="svg_257" height="50" width="50" y="599.669756" x="700.00017" stroke="#666666" fill="#638964"/>
  <rect x="799.999025" y="599.669756" id="svg_258" height="50" width="50" stroke="#666666" fill="#638964"/>
  <rect id="svg_259" height="50" width="50" y="599.669756" x="849.999025" stroke="#666666" fill="#638964"/>
  <rect x="949.999025" y="599.669756" id="svg_260" height="50" width="50" stroke="#666666" fill="#638964"/>
  <rect id="svg_261" height="50" width="50" y="599.669756" x="899.999025" stroke="#666666" fill="#638964"/>
  <rect x="0" y="649.669756" id="svg_262" height="50" width="50" stroke="#666666" fill="#638964"/>
  <rect id="svg_263" height="50" width="50" y="649.669756" x="50" stroke="#666666" fill="#638964"/>
  <rect x="150" y="649.669756" id="svg_264" height="50" width="50" stroke="#666666" fill="#638964"/>
  <rect id="svg_265" height="50" width="50" y="649.669756" x="100" stroke="#666666" fill="#638964"/>
  <rect x="200.002459" y="649.669756" id="svg_266" height="50" width="50" stroke="#666666" fill="#638964"/>
  <rect id="svg_267" height="50" width="50" y="649.669756" x="250.002459" stroke="#666666" fill="#638964"/>
  <rect x="350.002459" y="649.669756" id="svg_268" height="50" width="50" stroke="#666666" fill="#638964"/>
  <rect id="svg_269" height="50" width="50" y="649.669756" x="300.002459" stroke="#666666" fill="#638964"/>
  <rect x="399.997711" y="649.669756" id="svg_270" height="50" width="50" stroke="#666666" fill="#638964"/>
  <rect id="svg_271" height="50" width="50" y="649.669756" x="450" stroke="#666666" fill="#638964"/>
  <rect x="549.997711" y="649.669756" id="svg_272" height="50" width="50" stroke="#666666" fill="#638964"/>
  <rect id="svg_273" height="50" width="50" y="649.669756" x="499.997711" stroke="#666666" fill="#638964"/>
  <rect x="600.00017" y="649.669756" id="svg_274" height="50" width="50" stroke="#666666" fill="#638964"/>
  <rect id="svg_275" height="50" width="50" y="649.669756" x="650.00017" stroke="#666666" fill="#638964"/>
  <rect x="750.00017" y="649.669756" id="svg_276" height="50" width="50" stroke="#666666" fill="#638964"/>
  <rect id="svg_277" height="50" width="50" y="649.669756" x="700.00017" stroke="#666666" fill="#638964"/>
  <rect x="799.999025" y="649.669756" id="svg_278" height="50" width="50" stroke="#666666" fill="#638964"/>
  <rect id="svg_279" height="50" width="50" y="649.669756" x="849.999025" stroke="#666666" fill="#638964"/>
  <rect x="949.999025" y="649.669756" id="svg_280" height="50" width="50" stroke="#666666" fill="#638964"/>
  <rect id="svg_281" height="50" width="50" y="649.669756" x="899.999025" stroke="#666666" fill="#638964"/>
  <rect x="0" y="699.669733" id="svg_282" height="50" width="50" stroke="#666666" fill="#638964"/>
  <rect id="svg_283" height="50" width="50" y="699.669733" x="50" stroke="#666666" fill="#638964"/>
  <rect x="150" y="699.669733" id="svg_284" height="50" width="50" stroke="#666666" fill="#638964"/>
  <rect id="svg_285" height="50" width="50" y="699.669733" x="100" stroke="#666666" fill="#638964"/>
  <rect x="200.002459" y="699.669733" id="svg_286" height="50" width="50" stroke="#666666" fill="#638964"/>
  <rect id="svg_287" height="50" width="50" y="699.669733" x="250.002459" stroke="#666666" fill="#638964"/>
  <rect x="350.002459" y="699.669733" id="svg_288" height="50" width="50" stroke="#666666" fill="#638964"/>
  <rect id="svg_289" height="50" width="50" y="699.669733" x="300.002459" stroke="#666666" fill="#638964"/>
  <rect x="399.997711" y="699.669733" id="svg_290" height="50" width="50" stroke="#666666" fill="#638964"/>
  <rect id="svg_291" height="50" width="50" y="699.669733" x="449.997711" stroke="#666666" fill="#638964"/>
  <rect x="549.997711" y="699.669733" id="svg_292" height="50" width="50" stroke="#666666" fill="#638964"/>
  <rect id="svg_293" height="50" width="50" y="699.669733" x="499.997711" stroke="#666666" fill="#638964"/>
  <rect x="600.00017" y="699.669733" id="svg_294" height="50" width="50" stroke="#666666" fill="#638964"/>
  <rect id="svg_295" height="50" width="50" y="699.669733" x="650.00017" stroke="#666666" fill="#638964"/>
  <rect x="750.00017" y="699.669733" id="svg_296" height="50" width="50" stroke="#666666" fill="#638964"/>
  <rect id="svg_297" height="50" width="50" y="699.669733" x="700.00017" stroke="#666666" fill="#638964"/>
  <rect x="799.999025" y="699.669733" id="svg_298" height="50" width="50" stroke="#666666" fill="#638964"/>
  <rect id="svg_299" height="50" width="50" y="699.669733" x="849.999025" stroke="#666666" fill="#638964"/>
  <rect x="949.999025" y="699.669733" id="svg_300" height="50" width="50" stroke="#666666" fill="#638964"/>
  <rect id="svg_301" height="50" width="50" y="699.669733" x="899.999025" stroke="#666666" fill="#638964"/>
  <rect x="0" y="749.669733" id="svg_302" height="50" width="50" stroke="#666666" fill="#638964"/>
  <rect id="svg_303" height="50" width="50" y="749.669733" x="50" stroke="#666666" fill="#638964"/>
  <rect x="150" y="749.669733" id="svg_304" height="50" width="50" stroke="#666666" fill="#638964"/>
  <rect id="svg_305" height="50" width="50" y="749.669733" x="100" stroke="#666666" fill="#638964"/>
  <rect x="200.002459" y="749.669733" id="svg_306" height="50" width="50" stroke="#666666" fill="#638964"/>
  <rect id="svg_307" height="50" width="50" y="749.669733" x="250.002459" stroke="#666666" fill="#638964"/>
  <rect x="350.002459" y="749.669733" id="svg_308" height="50" width="50" stroke="#666666" fill="#638964"/>
  <rect id="svg_309" height="50" width="50" y="749.669733" x="300.002459" stroke="#666666" fill="#638964"/>
  <rect x="399.997711" y="749.669733" id="svg_310" height="50" width="50" stroke="#666666" fill="#638964"/>
  <rect id="svg_311" height="50" width="50" y="749.669733" x="450" stroke="#666666" fill="#638964"/>
  <rect x="549.997711" y="749.669733" id="svg_312" height="50" width="50" stroke="#666666" fill="#638964"/>
  <rect id="svg_313" height="50" width="50" y="749.669733" x="499.997711" stroke="#666666" fill="#638964"/>
  <rect x="600.00017" y="749.669733" id="svg_314" height="50" width="50" stroke="#666666" fill="#638964"/>
  <rect id="svg_315" height="50" width="50" y="749.669733" x="650.00017" stroke="#666666" fill="#638964"/>
  <rect x="750.00017" y="749.669733" id="svg_316" height="50" width="50" stroke="#666666" fill="#638964"/>
  <rect id="svg_317" height="50" width="50" y="749.669733" x="700.00017" stroke="#666666" fill="#638964"/>
  <rect x="799.999025" y="749.669733" id="svg_318" height="50" width="50" stroke="#666666" fill="#638964"/>
  <rect id="svg_319" height="50" width="50" y="749.669733" x="849.999025" stroke="#666666" fill="#638964"/>
  <rect x="949.999025" y="749.669733" id="svg_320" height="50" width="50" stroke="#666666" fill="#638964"/>
  <rect id="svg_321" height="50" width="50" y="749.669733" x="899.999025" stroke="#666666" fill="#638964"/>
  <rect x="0" y="799.669771" id="svg_322" height="50" width="50" stroke="#666666" fill="#638964"/>
  <rect id="svg_323" height="50" width="50" y="799.669771" x="50" stroke="#666666" fill="#638964"/>
  <rect x="150" y="799.669771" id="svg_324" height="50" width="50" stroke="#666666" fill="#638964"/>
  <rect id="svg_325" height="50" width="50" y="799.669771" x="100" stroke="#666666" fill="#638964"/>
  <rect x="200.002459" y="799.669771" id="svg_326" height="50" width="50" stroke="#666666" fill="#638964"/>
  <rect id="svg_327" height="50" width="50" y="799.669771" x="250.002459" stroke="#666666" fill="#638964"/>
  <rect x="350.002459" y="799.669771" id="svg_328" height="50" width="50" stroke="#666666" fill="#638964"/>
  <rect id="svg_329" height="50" width="50" y="799.669771" x="300.002459" stroke="#666666" fill="#638964"/>
  <rect x="399.997711" y="799.669771" id="svg_330" height="50" width="50" stroke="#666666" fill="#638964"/>
  <rect id="svg_331" height="50" width="50" y="799.669771" x="449.997711" stroke="#666666" fill="#638964"/>
  <rect x="549.997711" y="799.669771" id="svg_332" height="50" width="50" stroke="#666666" fill="#638964"/>
  <rect id="svg_333" height="50" width="50" y="799.669771" x="499.997711" stroke="#666666" fill="#638964"/>
  <rect x="600.00017" y="799.669771" id="svg_334" height="50" width="50" stroke="#666666" fill="#638964"/>
  <rect id="svg_335" height="50" width="50" y="799.669771" x="650.00017" stroke="#666666" fill="#638964"/>
  <rect x="750.00017" y="799.669771" id="svg_336" height="50" width="50" stroke="#666666" fill="#638964"/>
  <rect id="svg_337" height="50" width="50" y="799.669771" x="700.00017" stroke="#666666" fill="#638964"/>
  <rect x="799.999025" y="799.669771" id="svg_338" height="50" width="50" stroke="#666666" fill="#638964"/>
  <rect id="svg_339" height="50" width="50" y="799.669771" x="849.999025" stroke="#666666" fill="#638964"/>
  <rect x="949.999025" y="799.669771" id="svg_340" height="50" width="50" stroke="#666666" fill="#638964"/>
  <rect id="svg_341" height="50" width="50" y="799.669771" x="899.999025" stroke="#666666" fill="#638964"/>
  <rect x="0" y="849.669771" id="svg_342" height="50" width="50" stroke="#666666" fill="#638964"/>
  <rect id="svg_343" height="50" width="50" y="849.669771" x="50" stroke="#666666" fill="#638964"/>
  <rect x="150" y="849.669771" id="svg_344" height="50" width="50" stroke="#666666" fill="#638964"/>
  <rect id="svg_345" height="50" width="50" y="849.669771" x="100" stroke="#666666" fill="#638964"/>
  <rect x="200.002458" y="849.669771" id="svg_346" height="50" width="50" stroke="#666666" fill="#638964"/>
  <rect id="svg_347" height="50" width="50" y="849.669771" x="250.002458" stroke="#666666" fill="#638964"/>
  <rect x="350.002458" y="849.669771" id="svg_348" height="50" width="50" stroke="#666666" fill="#638964"/>
  <rect id="svg_349" height="50" width="50" y="849.669771" x="300.002458" stroke="#666666" fill="#638964"/>
  <rect x="399.997711" y="849.669771" id="svg_350" height="50" width="50" stroke="#666666" fill="#638964"/>
  <rect id="svg_351" height="50" width="50" y="849.669771" x="450" stroke="#666666" fill="#638964"/>
  <rect x="549.997711" y="849.669771" id="svg_352" height="50" width="50" stroke="#666666" fill="#638964"/>
  <rect id="svg_353" height="50" width="50" y="849.669771" x="499.997711" stroke="#666666" fill="#638964"/>
  <rect x="600.00017" y="849.669771" id="svg_354" height="50" width="50" stroke="#666666" fill="#638964"/>
  <rect id="svg_355" height="50" width="50" y="849.669771" x="650.00017" stroke="#666666" fill="#638964"/>
  <rect x="750.00017" y="849.669771" id="svg_356" height="50" width="50" stroke="#666666" fill="#638964"/>
  <rect id="svg_357" height="50" width="50" y="849.669771" x="700.00017" stroke="#666666" fill="#638964"/>
  <rect x="799.999025" y="849.669771" id="svg_358" height="50" width="50" stroke="#666666" fill="#638964"/>
  <rect id="svg_359" height="50" width="50" y="849.669771" x="849.999025" stroke="#666666" fill="#638964"/>
  <rect x="949.999025" y="849.669771" id="svg_360" height="50" width="50" stroke="#666666" fill="#638964"/>
  <rect id="svg_361" height="50" width="50" y="849.669771" x="899.999025" stroke="#666666" fill="#638964"/>
  <rect x="0" y="899.669748" id="svg_362" height="50" width="50" stroke="#666666" fill="#638964"/>
  <rect id="svg_363" height="50" width="50" y="899.669748" x="50" stroke="#666666" fill="#638964"/>
  <rect x="150" y="899.669748" id="svg_364" height="50" width="50" stroke="#666666" fill="#638964"/>
  <rect id="svg_365" height="50" width="50" y="899.669748" x="100" stroke="#666666" fill="#638964"/>
  <rect x="200.002458" y="899.669748" id="svg_366" height="50" width="50" stroke="#666666" fill="#638964"/>
  <rect id="svg_367" height="50" width="50" y="899.669748" x="250.002458" stroke="#666666" fill="#638964"/>
  <rect x="350.002458" y="899.669748" id="svg_368" height="50" width="50" stroke="#666666" fill="#638964"/>
  <rect id="svg_369" height="50" width="50" y="899.669748" x="300.002458" stroke="#666666" fill="#638964"/>
  <rect x="399.997711" y="899.669748" id="svg_370" height="50" width="50" stroke="#666666" fill="#638964"/>
  <rect id="svg_371" height="50" width="50" y="899.669748" x="449.997711" stroke="#666666" fill="#638964"/>
  <rect x="549.997711" y="899.669748" id="svg_372" height="50" width="50" stroke="#666666" fill="#638964"/>
  <rect id="svg_373" height="50" width="50" y="899.669748" x="499.997711" stroke="#666666" fill="#638964"/>
  <rect x="600.00017" y="899.669748" id="svg_374" height="50" width="50" stroke="#666666" fill="#638964"/>
  <rect id="svg_375" height="50" width="50" y="899.669748" x="650.00017" stroke="#666666" fill="#638964"/>
  <rect x="750.00017" y="899.669748" id="svg_376" height="50" width="50" stroke="#666666" fill="#638964"/>
  <rect id="svg_377" height="50" width="50" y="899.669748" x="700.00017" stroke="#666666" fill="#638964"/>
  <rect x="799.999025" y="899.669748" id="svg_378" height="50" width="50" stroke="#666666" fill="#638964"/>
  <rect id="svg_379" height="50" width="50" y="899.669748" x="849.999025" stroke="#666666" fill="#638964"/>
  <rect x="949.999025" y="899.669748" id="svg_380" height="50" width="50" stroke="#666666" fill="#638964"/>
  <rect id="svg_381" height="50" width="50" y="899.669748" x="899.999025" stroke="#666666" fill="#638964"/>
  <rect x="0" y="949.669748" id="svg_382" height="50" width="50" stroke="#666666" fill="#638964"/>
  <rect id="svg_383" height="50" width="50" y="949.669748" x="50" stroke="#666666" fill="#638964"/>
  <rect x="150" y="949.669748" id="svg_384" height="50" width="50" stroke="#666666" fill="#638964"/>
  <rect id="svg_385" height="50" width="50" y="949.669748" x="100" stroke="#666666" fill="#638964"/>
  <rect x="200.002458" y="949.669748" id="svg_386" height="50" width="50" stroke="#666666" fill="#638964"/>
  <rect id="svg_387" height="50" width="50" y="949.669748" x="250.002458" stroke="#666666" fill="#638964"/>
  <rect x="350.002458" y="949.669748" id="svg_388" height="50" width="50" stroke="#666666" fill="#638964"/>
  <rect id="svg_389" height="50" width="50" y="949.669748" x="300.002458" stroke="#666666" fill="#638964"/>
  <rect x="399.997711" y="949.669748" id="svg_390" height="50" width="50" stroke="#666666" fill="#638964"/>
  <rect id="svg_391" height="50" width="50" y="949.669748" x="450" stroke="#666666" fill="#638964"/>
  <rect x="549.997711" y="949.669748" id="svg_392" height="50" width="50" stroke="#666666" fill="#638964"/>
  <rect id="svg_393" height="50" width="50" y="949.669748" x="499.997711" stroke="#666666" fill="#638964"/>
  <rect x="600.00017" y="949.669748" id="svg_394" height="50" width="50" stroke="#666666" fill="#638964"/>
  <rect id="svg_395" height="50" width="50" y="949.669748" x="650.00017" stroke="#666666" fill="#638964"/>
  <rect x="750.00017" y="949.669748" id="svg_396" height="50" width="50" stroke="#666666" fill="#638964"/>
  <rect id="svg_397" height="50" width="50" y="949.669748" x="700.00017" stroke="#666666" fill="#638964"/>
  <rect x="799.999025" y="949.669748" id="svg_398" height="50" width="50" stroke="#666666" fill="#638964"/>
  <rect id="svg_399" height="50" width="50" y="949.669748" x="849.999025" stroke="#666666" fill="#638964"/>
  <rect x="949.999025" y="949.669748" id="svg_400" height="50" width="50" stroke="#666666" fill="#638964"/>
  <rect id="svg_401" height="50" width="50" y="949.669748" x="899.999025" stroke="#666666" fill="#638964"/>
 </g>
</svg>