<svg width="128" height="128" xmlns="http://www.w3.org/2000/svg">

 <g>
  <title>background</title>
  <rect fill="none" id="canvas_background" height="130" width="130" y="-1" x="-1"/>
 </g>
 <g>
  <title>Layer 1</title>
  <path stroke="#666666" transform="rotate(-90 64.77696228027345,97.88053894042969) " id="svg_5" d="m43.118519,83.769257l32.487651,0l10.829236,14.111254l-10.829236,14.111316l-32.487651,0l10.829233,-14.111316l-10.829233,-14.111254z" fill-opacity="null" stroke-opacity="null" stroke-width="null" fill="#b2b2b2"/>
  <rect stroke="#7c542e" id="svg_4" height="92.828908" width="5.60606" y="22.236655" x="61.813798" fill="#d19155"/>
  <path stroke="#666666" transform="rotate(-90 64.67874145507814,18.455394744873043) " id="svg_2" d="m61.073192,32.791251c-0.849779,-0.79728 -0.738289,-1.280074 1.327778,-5.749335c1.043264,-2.256745 1.896835,-4.168755 1.896835,-4.248909c0,-0.080148 -2.880809,-0.145729 -6.401818,-0.145729l-6.401818,0l0,-4.226656l0,-4.226656l6.452556,0c4.975284,0 6.397011,-0.127328 6.209982,-0.556141c-0.133414,-0.305876 -1.043497,-2.335619 -2.022407,-4.510532c-1.845258,-4.099763 -1.844679,-5.199219 0.002851,-5.540012c0.919446,-0.169594 15.234132,12.861103 15.726156,14.315575c-4.768097,5.193261 -10.467588,10.629272 -15.717747,15.42229c-0.276829,0 -0.759388,-0.240252 -1.072367,-0.533896l-0.000001,0z" fill="#b2b2b2"/>
 </g>
</svg>