<svg width="640" height="640" xmlns="http://www.w3.org/2000/svg">
 <!-- Created with SVG Editor - http://github.com/mzalive/SVG Editor/ -->

 <g>
  <title>background</title>
  <rect fill="none" id="canvas_background" height="402" width="582" y="-1" x="-1"/>
 </g>
 <g>
  <title>Layer 1</title>
  <path fill="#ffd600" stroke-width="4" d="m509.2451,351.29924c0,15.00374 -80.58876,27.16667 -180.00003,27.16667m180.00003,-27.16667l0,0c0,15.00374 -80.58876,27.16667 -180.00003,27.16667c-99.41124,0 -179.99997,-12.16291 -179.99997,-27.16667m0,0l0,0c0,-15.00372 80.58873,-27.16665 179.99997,-27.16665c99.41127,0 180.00003,12.16293 180.00003,27.16665l0,108.66672c0,15.00371 -80.58876,27.16661 -180.00003,27.16661c-99.41124,0 -179.99997,-12.1629 -179.99997,-27.16661l0,-108.66672z" id="svg_2" transform="rotate(180 329.2451171875,405.632568359375) " stroke="#b79903"/>
  <path stroke="#ffd600" fill="#ffd600" stroke-width="4" d="m505.467176,446.144555c0,2.139147 -78.897319,3.873267 -176.222091,3.873267m176.222091,-3.873267l0,0c0,2.139147 -78.897319,3.873267 -176.222091,3.873267c-97.324743,0 -176.222032,-1.734117 -176.222032,-3.873267m0,0l0,0c0,-2.139144 78.89729,-3.873264 176.222032,-3.873264c97.324772,0 176.222091,1.73412 176.222091,3.873264l0,15.493073c0,2.139142 -78.897319,3.873258 -176.222091,3.873258c-97.324743,0 -176.222032,-1.734116 -176.222032,-3.873258l0,-15.493073z" id="svg_17" transform="rotate(180 329.2451171875,453.89111328125) "/>
  <path stroke="#b79903" fill="#bf0000" stroke-width="4" d="m510.100419,306.873989c0,17.189668 -80.928859,31.124633 -180.759667,31.124633m180.759667,-31.124633l0,0c0,17.189668 -80.928859,31.124633 -180.759667,31.124633c-99.830768,0 -180.759597,-13.934942 -180.759597,-31.124633m0,0l0,0c0,-17.189645 80.928829,-31.124621 180.759597,-31.124621c99.830808,0 180.759667,13.934976 180.759667,31.124621l0,124.498588c0,17.189634 -80.928859,31.124576 -180.759667,31.124576c-99.830768,0 -180.759597,-13.934942 -180.759597,-31.124576l0,-124.498588z" id="svg_3" transform="rotate(180 329.3408203125,369.1232604980469) "/>
  <path fill="#ffd600" stroke-width="4" d="m509.2451,310.32769c0,15.00373 -80.58876,27.16667 -180.00003,27.16667m180.00003,-27.16667l0,0c0,15.00373 -80.58876,27.16667 -180.00003,27.16667c-99.41124,0 -179.99997,-12.16291 -179.99997,-27.16667m0,0l0,0c0,-15.00372 80.58873,-27.16666 179.99997,-27.16666c99.41127,0 180.00003,12.16294 180.00003,27.16666l0,108.66671c0,15.00372 -80.58876,27.16662 -180.00003,27.16662c-99.41124,0 -179.99997,-12.1629 -179.99997,-27.16662l0,-108.66671z" id="svg_1" transform="rotate(180 329.2451171875,364.6610107421875) " stroke="#b79903"/>
  <path fill="#ffd600" stroke-width="4" d="m111.79461,415.40565l37.87925,-283.89348l37.87924,283.89348l-75.75849,0z" id="svg_4" transform="rotate(-14.893915176391602 149.67385864257847,273.45892333984386) " stroke="#b79903"/>
  <path fill="#ffd600" stroke-width="4" d="m472.09895,414.40565l37.87924,-283.89348l37.87925,283.89348l-75.75849,0z" id="svg_5" transform="rotate(15 509.97817993164017,272.45892333984386) " stroke="#b79903"/>
  <path fill="#ffd600" stroke-width="4" d="m156.94108,315.409l46,-169.95636l46,169.95636l-92,0z" id="svg_6" transform="rotate(-9 202.94108581542943,230.4308166503906) " stroke="#b79903"/>
  <path fill="#ffd600" stroke-width="4" d="m407.94308,315.409l46,-169.95636l46,169.95636l-92,0z" id="svg_7" transform="rotate(9 453.94308471679653,230.43081665039062) " stroke="#b79903"/>
  <path fill="#ffd600" stroke="#b79903" stroke-width="4" d="m230.2425,321.85895l97.5,-227.99998l97.5,227.99998l-195,0z" id="svg_8"/>
  <ellipse fill="#ffd600" stroke="#b79903" stroke-width="4" cx="113.5" cy="132.453125" id="svg_9" rx="24" ry="24"/>
  <ellipse fill="#ffd600" stroke="#b79903" stroke-width="4" cx="545.105967" cy="135.002635" id="svg_11" rx="24" ry="24"/>
  <ellipse fill="#ffd600" stroke-width="4" cx="191" cy="144.790847" id="svg_12" rx="21.5" ry="21.5" stroke="#b79903"/>
  <ellipse fill="#ffd600" stroke-width="4" cx="467.581138" cy="144.371986" id="svg_13" rx="21.5" ry="21.5" stroke="#b79903"/>
  <ellipse fill="#ffd600" stroke="#b79903" stroke-width="4" cx="327.5" cy="83.453125" id="svg_14" rx="24" ry="24"/>
  <rect stroke="#b79903" id="svg_10" height="71.826048" width="367" y="284.173952" x="145.5" stroke-width="0" fill="#ffd600"/>
  <rect stroke="#b79903" id="svg_16" height="77.912975" width="189.609506" y="278.087025" x="231.586565" stroke-width="0" fill="#ffd600"/>
  <rect stroke="#b79903" id="svg_15" height="92.067374" width="355.99985" y="328.826235" x="151.93478" stroke-width="0" fill="#ffd600"/>
  <path stroke="#b79903" id="svg_18" d="m283.864707,346.862549l46.942924,-76.923268l46.942924,76.923268l-46.942924,76.923268l-46.942924,-76.923268z" stroke-width="4" fill="#bf0000"/>
  <path stroke="#b79903" id="svg_19" d="m197.151198,345.463946l30.299517,-49.650468l30.299517,49.650468l-30.299517,49.650468l-30.299517,-49.650468z" stroke-width="4" fill="#bf0000"/>
  <path stroke="#b79903" id="svg_20" d="m407.659852,345.46395l30.29952,-49.65047l30.29951,49.65047l-30.29951,49.65046l-30.29952,-49.65046z" stroke-width="4" fill="#bf0000"/>
  <path stroke="#bf0000" id="svg_21" d="m301.610558,345.46395l30.29952,-49.65047l30.29951,49.65047l-30.29951,49.65046l-30.29952,-49.65046z" stroke-width="4" fill="#ff0000"/>
  <path stroke="#bf0000" id="svg_22" d="m207.320693,345.040217l19.180436,-31.430124l19.18043,31.430124l-19.18043,31.430118l-19.180436,-31.430118z" stroke-width="4" fill="#ff0000"/>
  <path stroke="#bf0000" id="svg_23" d="m418.625088,345.04022l19.18044,-31.43013l19.18043,31.43013l-19.18043,31.43011l-19.18044,-31.43011z" stroke-width="4" fill="#ff0000"/>
 </g>
</svg>