<svg width="1000" height="1000" xmlns="http://www.w3.org/2000/svg">
 <!-- Created with SVG Editor - http://github.com/mzalive/SVG Editor/ -->

 <g>
  <title>background</title>
  <rect x="-1" y="-1" width="1001.998902" height="1001.998902" id="canvas_background" fill="none"/>
  <g id="canvasGrid" display="none">
   <rect id="svg_2" width="100%" height="100%" x="0" y="0" stroke-width="0" fill="url(#gridpattern)"/>
  </g>
 </g>
 <g>
  <title>Layer 1</title>
  <path fill="#b2b2b2" stroke="#b00020" stroke-width="8" stroke-opacity="null" fill-opacity="null" id="svg_8"/>
  <path fill="#d19155" stroke="#d19155" stroke-width="8" d="m419.199713,409.278968l2.272728,-23.484843l7.575761,0l2.272727,23.484843l-12.121217,0l0.000001,0z" id="svg_20" transform="rotate(93 425.26031494140614,397.53652954101574) "/>
  <rect fill="#d19155" stroke-width="8" x="437.134935" y="394.713218" width="166.16266" height="10.606059" id="svg_21" stroke="#d19155"/>
  <path fill="#999999" stroke-width="8" d="m619.346786,428.176407l6.726318,-58.3909l22.42106,0l6.726315,58.3909l-35.873694,0l0.000001,0z" id="svg_22" stroke="#999999" transform="rotate(-90 637.2836303710938,398.98095703124994) "/>
  <path fill="#999999" stroke-width="8" d="m659.549295,387.71982l9.51252,-16.474959l16.474959,-9.51252l19.025043,0l16.474959,9.51252l9.512518,16.474959l0,19.025043l-9.512518,16.474959l-16.474959,9.512518l-19.025043,0l-16.474959,-9.512518l-9.51252,-16.474959l0,-19.025043z" id="svg_3" stroke="#666666"/>
  <line fill="#d19155" stroke-width="8" x1="437.879798" y1="407.068777" x2="587.760349" y2="409.486205" id="svg_13" stroke-linejoin="null" stroke-linecap="null" stroke="#7c542e"/>
  <line fill="#999999" stroke-width="8" x1="436.926909" y1="392.622357" x2="584.032175" y2="393.433321" id="svg_12" stroke-linejoin="null" stroke-linecap="null" stroke="#666666"/>
  <line fill="#999999" stroke-width="8" x1="581.067794" y1="393.322397" x2="670.103664" y2="370.828631" id="svg_14" stroke-linejoin="null" stroke-linecap="null" stroke="#666666"/>
  <line fill="#999999" stroke-width="8" x1="577.379212" y1="408.717483" x2="667.206806" y2="422.391091" id="svg_18" stroke-linejoin="null" stroke-linecap="null" stroke="#666666"/>
  <line fill="#d19155" stroke-width="8" x1="399.694325" y1="411.11052" x2="445.014822" y2="405.046366" id="svg_11" stroke-linejoin="null" stroke-linecap="null" stroke="#7c542e" transform="rotate(6 422.3545837402344,408.0784301757817) "/>
  <line fill="#d19155" stroke="#7c542e" stroke-width="8" x1="402.103461" y1="381.148144" x2="442.103461" y2="396.148144" id="svg_10" stroke-linejoin="null" stroke-linecap="null" transform="rotate(-9 422.10345458984386,388.64813232421864) "/>
  <ellipse fill="#999999" stroke-width="8" cx="395.294029" cy="396.251283" id="svg_4" rx="14" ry="14" stroke="#666666"/>
  <ellipse fill="#ffd36d" stroke="#a5874a" stroke-width="14" cx="435" cy="415" id="svg_7" rx="35" ry="35"/>
  <ellipse fill="#ffd36d" stroke="#a5874a" stroke-width="14" cx="565" cy="415" id="svg_6" rx="35" ry="35"/>
  <ellipse fill="#ffd36d" stroke="#a5874a" stroke-width="14" cx="500" cy="500" id="svg_1" rx="100" ry="100"/>
 </g>
</svg>