<?xml version="1.0" encoding="utf-8"?>
<svg viewBox="0 0 1000 1000" xmlns="http://www.w3.org/2000/svg" xmlns:bx="https://boxy-svg.com">
  <path style="stroke-width: 7.38015px; fill: rgb(73, 126, 71); stroke: rgb(60, 101, 58);" transform="matrix(-0.399403, 1.007724, -1.007724, -0.399403, 1246.883423, -45.848381)" d="M 722 278.589 L 722 278.589 L 766.556 347.431 A 116.432 116.432 0 0 1 766.556 347.431 L 846.742 330.258 L 846.742 330.258 L 829.569 410.444 A 116.432 116.432 0 0 1 829.569 410.444 L 898.411 455 L 898.411 455 L 829.569 499.556 A 116.432 116.432 0 0 1 829.569 499.556 L 846.742 579.742 L 846.742 579.742 L 766.556 562.569 A 116.432 116.432 0 0 1 766.556 562.569 L 722 631.411 L 722 631.411 L 677.444 562.569 A 116.432 116.432 0 0 1 677.444 562.569 L 597.258 579.742 L 597.258 579.742 L 614.431 499.556 A 116.432 116.432 0 0 1 614.431 499.556 L 545.589 455 L 545.589 455 L 614.431 410.444 A 116.432 116.432 0 0 1 614.431 410.444 L 597.258 330.258 L 597.258 330.258 L 677.444 347.431 A 116.432 116.432 0 0 1 677.444 347.431 Z M 722 455 A 0 0 0 0 0 722 455 A 0 0 0 0 0 722 455" bx:shape="cog 722 455 0 116.432 176.411 1 8 1@606f934e"/>
  <path style="stroke-width: 12.3686px; stroke: rgb(66, 114, 64); fill: rgb(80, 139, 78);" transform="matrix(-0.838743, 0.266479, -0.266479, -0.838743, 1411.631714, 492.002411)" d="M 990 155.384 L 990 155.384 L 1024.926 220.681 A 91.266 91.266 0 0 1 1024.926 220.681 L 1095.795 199.205 L 1095.795 199.205 L 1074.319 270.074 A 91.266 91.266 0 0 1 1074.319 270.074 L 1139.616 305 L 1139.616 305 L 1074.319 339.926 A 91.266 91.266 0 0 1 1074.319 339.926 L 1095.795 410.795 L 1095.795 410.795 L 1024.926 389.319 A 91.266 91.266 0 0 1 1024.926 389.319 L 990 454.616 L 990 454.616 L 955.074 389.319 A 91.266 91.266 0 0 1 955.074 389.319 L 884.205 410.795 L 884.205 410.795 L 905.681 339.926 A 91.266 91.266 0 0 1 905.681 339.926 L 840.384 305 L 840.384 305 L 905.681 270.074 A 91.266 91.266 0 0 1 905.681 270.074 L 884.205 199.205 L 884.205 199.205 L 955.074 220.681 A 91.266 91.266 0 0 1 955.074 220.681 Z M 990 305 A 0 0 0 0 0 990 305 A 0 0 0 0 0 990 305" bx:shape="cog 990 305 0 91.266 149.616 1 8 1@037a8d3a" bx:origin="0.612 0.631"/>
  <path style="stroke-width: 12.3686px; fill: rgb(87, 148, 85); stroke: rgb(78, 132, 77);" transform="matrix(-0.388469, -0.014417, 0.014417, -0.388469, 880.187134, 632.755859)" d="M 990 155.384 L 990 155.384 L 1024.926 220.681 A 91.266 91.266 0 0 1 1024.926 220.681 L 1095.795 199.205 L 1095.795 199.205 L 1074.319 270.074 A 91.266 91.266 0 0 1 1074.319 270.074 L 1139.616 305 L 1139.616 305 L 1074.319 339.926 A 91.266 91.266 0 0 1 1074.319 339.926 L 1095.795 410.795 L 1095.795 410.795 L 1024.926 389.319 A 91.266 91.266 0 0 1 1024.926 389.319 L 990 454.616 L 990 454.616 L 955.074 389.319 A 91.266 91.266 0 0 1 955.074 389.319 L 884.205 410.795 L 884.205 410.795 L 905.681 339.926 A 91.266 91.266 0 0 1 905.681 339.926 L 840.384 305 L 840.384 305 L 905.681 270.074 A 91.266 91.266 0 0 1 905.681 270.074 L 884.205 199.205 L 884.205 199.205 L 955.074 220.681 A 91.266 91.266 0 0 1 955.074 220.681 Z M 990 305 A 0 0 0 0 0 990 305 A 0 0 0 0 0 990 305" bx:shape="cog 990 305 0 91.266 149.616 1 8 1@037a8d3a" bx:origin="0.612 0.631"/>
</svg>