<?xml version="1.0" encoding="utf-8"?>
<svg viewBox="0 0 1000 1000" xmlns="http://www.w3.org/2000/svg">
  <polygon style="stroke-width: 8px; stroke: rgba(102, 102, 102, 0.5); fill: rgba(178, 178, 178, 0.48);" points="312.179 397.595 375.397 355.423 500.715 315.731 627.232 352.943 700 394.288 624.751 369.48 503.196 338.058 377.471 368.604"></polygon>
  <g transform="matrix(1, 0, 0, 1, 0, -310)">
    <title>Human</title>
    <ellipse stroke-width="14" cx="500" cy="810" id="svg_1" rx="100" ry="100" style="stroke: rgba(165, 135, 74, 0.51); fill: rgba(255, 211, 109, 0.51);"></ellipse>
  </g>
  <path stroke-width="8" d="M 314.225 397.595 C 314.225 397.595 464.998 414.596 508.458 414.596 C 551.918 414.596 698.721 395.862 698.25 394.922" id="svg_39" style="fill: none; stroke: rgba(102, 102, 102, 0.5);"></path>
  <g transform="matrix(1, 0, 0, 1, 0, -326.575317)">
    <title>Human</title>
    <g transform="matrix(1, 0, 0, 1, 0, 326.575317)">
      <title>background</title>
      <rect fill="none" id="canvas_background" height="1002" width="1002" y="-1" x="-1"></rect>
      <g display="none" id="canvasGrid">
        <rect fill="url(#gridpattern)" stroke-width="0" y="0" x="0" height="100%" width="100%" id="svg_2"></rect>
      </g>
    </g>
    <g transform="matrix(1, 0, 0, 1, 0, 326.575317)">
      <title>Layer 1</title>
      <g transform="matrix(1, 0, 0, 1, -0.949652, 1)">
        <title>Layer 1</title>
        <ellipse ry="35" rx="35" id="ellipse-3" cy="413.248" cx="551.369" stroke-width="14" style="stroke: rgba(165, 135, 74, 0.51); fill: rgba(255, 211, 109, 0.51);"></ellipse>
        <ellipse ry="35" rx="35" id="ellipse-5" cy="353.458" cx="432.299" stroke-width="14" style="stroke: rgba(165, 135, 74, 0.51); fill: rgba(255, 211, 109, 0.51);"></ellipse>
      </g>
    </g>
  </g>
</svg>
