<svg width="1000" height="1000" xmlns="http://www.w3.org/2000/svg">
 <!-- Created with SVG Editor - http://github.com/mzalive/SVG Editor/ -->

 <g>
  <title>background</title>
  <rect x="-1" y="-1" width="1054.63179" height="1054.63179" id="canvas_background" fill="none"/>
  <g id="canvasGrid" display="none">
   <rect id="svg_2" width="100%" height="100%" x="0" y="0" stroke-width="0" fill="url(#gridpattern)"/>
  </g>
 </g>
 <g>
  <title>Layer 1</title>
  <line stroke="#5e1622" stroke-linecap="null" stroke-linejoin="null" id="svg_16" y2="411.852302" x2="612.566954" y1="411.852302" x1="389.824141" stroke-width="18" fill="#b00020"/>
  <path fill="#424242" stroke-width="8" d="m638.876612,394.117039l192.650826,-13.291605l66.186786,29.431417l-66.186786,28.482016l-193.241778,-13.291608l0.590952,-31.33022z" id="svg_22" stroke="#212121" stroke-linecap="null" stroke-linejoin="null"/>
  <path fill="#424242" stroke-width="3" d="m641.8852,402.565984l170.372921,-6.406365l58.533021,14.185521l-58.533021,13.727923l-170.895534,-6.406365l0.522613,-15.100715l0,0.000001z" id="svg_32" stroke="#212121" stroke-linecap="null" stroke-linejoin="null"/>
  <path fill="#424242" stroke-width="8" d="m602.24541,409.60117l22.30767,-44.61538l22.30767,44.61538l-22.30767,44.61538l-22.30767,-44.61538z" id="svg_23" stroke="#212121" stroke-linecap="null" stroke-linejoin="null"/>
  <path fill="#424242" stroke="#212121" stroke-width="4" d="m360.095386,411.112752l20.769238,-20.769239l20.769238,20.769239l-20.769238,20.769239l-20.769238,-20.769239z" id="svg_33" stroke-linecap="null" stroke-linejoin="null"/>
  <path fill="#424242" stroke-width="2" d="m-14932.960244,-10006.714141l9.202433,-9.202438l9.202438,9.202438l-9.202438,9.202438l-9.202433,-9.202438z" id="svg_34" stroke="#212121" stroke-linecap="null" stroke-linejoin="null"/>
  <ellipse stroke-linejoin="null" stroke-linecap="null" fill="#424242" stroke="#212121" stroke-width="14" cx="435" cy="415" id="svg_7" rx="35" ry="35"/>
  <ellipse stroke-linejoin="null" stroke-linecap="null" fill="#424242" stroke="#212121" stroke-width="14" cx="565" cy="415" id="svg_6" rx="35" ry="35"/>
  <ellipse stroke-linejoin="null" stroke-linecap="null" fill="#424242" stroke="#212121" stroke-width="14" cx="500" cy="500" id="svg_1" rx="100" ry="100"/>
  <path fill="#424242" stroke-width="2" d="m615.246163,409.662973l9.23075,-18.461517l9.23075,18.461517l-9.23075,18.461517l-9.23075,-18.461517z" id="svg_25" stroke="#212121" stroke-linecap="null" stroke-linejoin="null"/>
 </g>
</svg>