<svg width="1000" height="1000" xmlns="http://www.w3.org/2000/svg">
 <!-- Created with SVG Editor - http://github.com/mzalive/SVG Editor/ -->

 <g>
  <title>background</title>
  <rect x="-1" y="-1" width="1002" height="1002" id="canvas_background" fill="none"/>
  <g id="canvasGrid" display="none">
   <rect id="svg_2" width="100%" height="100%" x="0" y="0" stroke-width="0" fill="url(#gridpattern)"/>
  </g>
 </g>
 <g>
  <title>Layer 1</title>
  <line transform="rotate(-13 521.2834472656252,525.4261474609376) " stroke="#5e1622" stroke-linecap="null" stroke-linejoin="null" id="svg_16" y2="550.852302" x2="632.566954" y1="500" x1="410" stroke-width="18" fill="#b00020"/>
  <path fill="#14a3e5" stroke-width="8" d="m666.87661,508.11704l192.65083,-13.29161l66.18678,29.43142l-66.18678,28.48202l-193.24178,-13.29161l0.59095,-31.33022z" id="svg_22" stroke="#263238" stroke-linecap="null" stroke-linejoin="null"/>
  <path fill="#607d8b" stroke-width="3" d="m669.8852,517.56598l170.37292,-6.40636l58.53302,14.18552l-58.53302,13.72792l-170.89553,-6.40636l0.52261,-15.10072z" id="svg_32" stroke="#263238" stroke-linecap="null" stroke-linejoin="null"/>
  <path fill="#607d8b" stroke-width="8" d="m630.24541,524.60117l22.30767,-44.61538l22.30767,44.61538l-22.30767,44.61538l-22.30767,-44.61538z" id="svg_23" stroke="#263238" stroke-linecap="null" stroke-linejoin="null"/>
  <path fill="#607d8b" stroke="#263238" stroke-width="4" d="m377.09539,525.11275l20.76923,-20.76924l20.76924,20.76924l-20.76924,20.76924l-20.76923,-20.76924z" id="svg_33" stroke-linecap="null" stroke-linejoin="null"/>
  <path fill="#607d8b" stroke-width="2" d="m388.70339,525.18227l9.23077,-9.23077l9.23077,9.23077l-9.23077,9.23077l-9.23077,-9.23077z" id="svg_34" stroke="#263238" stroke-linecap="null" stroke-linejoin="null"/>
  <path fill="#607d8b" stroke-width="2" d="m643.24616,524.66297l9.23075,-18.46151l9.23075,18.46151l-9.23075,18.46152l-9.23075,-18.46152z" id="svg_25" stroke="#263238" stroke-linecap="null" stroke-linejoin="null"/>
 </g>
</svg>