<?xml version="1.0" encoding="utf-8"?>
<svg viewBox="100 100 800 400" xmlns="http://www.w3.org/2000/svg">
  <polygon style="fill: rgb(209, 145, 85); stroke: rgb(124, 84, 46); stroke-width: 8px;" points="312.1789855957031 400 375.3970031738281 357.8280029296875 500.7149963378906 318.135986328125 627.2319946289062 355.3479919433594 700 396.6929931640625 624.7509765625 371.885009765625 503.1960144042969 340.4630126953125 377.47100830078125 371.0090026855469"/>
  <polygon style="stroke-width: 7px; stroke: rgb(124, 84, 46); fill: rgb(209, 145, 85);" points="263.644 368.722 380.29 320.405 428.284 340.285 497.764 300 497.764 325.985 427.367 366.679 380.328 344.392"/>
  <polygon style="stroke: rgb(0, 0, 0); fill: rgb(209, 145, 85);" points="577.071 350.284"/>
  <polygon style="stroke: rgb(0, 0, 0); fill: rgb(209, 145, 85);" points="430.219 350.284" transform="matrix(-1, 0, 0, -1, 860.437988, 700.567993)"/>
  <polygon style="stroke-width: 7px; stroke: rgb(124, 84, 46); fill: rgb(209, 145, 85);" points="504.694 300.001 621.34 348.317 669.334 328.437 738.814 368.722 738.814 342.738 668.417 302.044 621.378 324.331" transform="matrix(-1, 0, 0, -1, 1243.508026, 668.722992)"/>
  <line style="stroke-width: 6px; stroke: rgb(124, 84, 46);" x1="312.179" y1="400" x2="500" y2="423.733"/>
  <line style="stroke-width: 6px; stroke: rgb(124, 84, 46);" x1="500" y1="423.733" x2="700" y2="400"/>
  <polygon style="fill: rgb(209, 145, 85);" points="493.7659912109375 306.375 501.218994140625 302.2250061035156 508.9639892578125 306.5039978027344 509.0249938964844 324.2969970703125 501.1610107421875 321.260009765625 492.468994140625 324.8599853515625"/>
</svg>