<?xml version="1.0" encoding="utf-8"?>
<svg viewBox="0 0 1000 1000" xmlns="http://www.w3.org/2000/svg">
  <g transform="matrix(1, 0, 0, 1, 2.805023, 26.853333)">
    <title>Layer 1</title>
    <path id="svg_1" d="m337.796485,399.486037l19.929412,-34.516199l34.516219,-19.9294l39.858828,0l34.516219,19.9294l19.929407,34.516199l0,39.858804l-19.929407,34.516199l-34.516219,19.929395l-39.858828,0l-34.516219,-19.929395l-19.929412,-34.516199l0,-39.858804z" style="stroke-width: 8px; fill: rgb(73, 126, 71); stroke: rgb(60, 101, 58);"/>
    <path id="svg_2" d="m460.846496,476.444621l26.795836,-46.408342l46.408342,-26.795836l53.591678,0l46.408342,26.795836l26.795829,46.408342l0,53.591678l-26.795829,46.408342l-46.408342,26.795829l-53.591678,0l-46.408342,-26.795829l-26.795836,-46.408342l0,-53.591678z" style="stroke-width: 8px; fill: rgb(73, 126, 71); stroke: rgb(60, 101, 58);"/>
    <path id="svg_3" d="m390.865172,542.847379l20.599295,-35.676406l35.676406,-20.599295l41.198595,0l35.676406,20.599295l20.59929,35.676406l0,41.198595l-20.59929,35.676406l-35.676406,20.59929l-41.198595,0l-35.676406,-20.59929l-20.599295,-35.676406l0,-41.198595z" style="stroke-width: 8px; fill: rgb(73, 126, 71); stroke: rgb(60, 101, 58);"/>
    <path id="svg_4" d="m474.274702,345.776442l14.570234,-25.234534l25.234534,-14.570234l29.140472,0l25.234534,14.570234l14.570231,25.234534l0,29.140472l-14.570231,25.234534l-25.234534,14.570231l-29.140472,0l-25.234534,-14.570231l-14.570234,-25.234534l0,-29.140472z" style="stroke-width: 8px; fill: rgb(73, 126, 71); stroke: rgb(60, 101, 58);"/>
    <path id="svg_5" d="m333.54347,461.827095l18.757079,-32.485829l32.485829,-18.757079l37.514164,0l32.485829,18.757079l18.757075,32.485829l0,37.514164l-18.757075,32.485829l-32.485829,18.757075l-37.514164,0l-32.485829,-18.757075l-18.757079,-32.485829l0,-37.514164z" style="stroke-width: 8px; fill: rgb(73, 126, 71); stroke: rgb(60, 101, 58);"/>
    <path id="svg_6" d="m546.068448,407.558737l13.062971,-22.624069l22.624069,-13.062971l26.125946,0l22.624069,13.062971l13.062968,22.624069l0,26.125946l-13.062968,22.624069l-22.624069,13.062968l-26.125946,0l-22.624069,-13.062968l-13.062971,-22.624069l0,-26.125946z" style="stroke-width: 8px; fill: rgb(73, 126, 71); stroke: rgb(60, 101, 58);"/>
    <path id="svg_7" d="m355.983915,536.751071l12.058124,-20.88375l20.88375,-12.058124l24.116251,0l20.88375,12.058124l12.058121,20.88375l0,24.116251l-12.058121,20.88375l-20.88375,12.058121l-24.116251,0l-20.88375,-12.058121l-12.058124,-20.88375l0,-24.116251z" style="stroke-width: 8px; fill: rgb(73, 126, 71); stroke: rgb(60, 101, 58);"/>
    <path id="svg_8" d="m418.2122,337.943476l11.555704,-20.013596l20.013596,-11.555704l23.11141,0l20.013596,11.555704l11.555701,20.013596l0,23.11141l-11.555701,20.013596l-20.013596,11.555701l-23.11141,0l-20.013596,-11.555701l-11.555704,-20.013596l0,-23.11141z" style="stroke-width: 8px; fill: rgb(73, 126, 71); stroke: rgb(60, 101, 58);"/>
    <path id="svg_9" d="m379.574718,423.868987l30.815206,-53.369585l53.369585,-30.815206l61.63042,0l53.369585,30.815206l30.815199,53.369585l0,61.63042l-30.815199,53.369585l-53.369585,30.815199l-61.63042,0l-53.369585,-30.815199l-30.815206,-53.369585l0,-61.63042z" style="stroke-width: 8px; fill: rgb(73, 126, 71); stroke: rgb(60, 101, 58);"/>
    <path id="svg_10" d="m452.750012,434.882292l12.058122,-20.883748l20.883748,-12.058122l24.116248,0l20.883748,12.058122l12.058119,20.883748l0,24.116248l-12.058119,20.883748l-20.883748,12.058119l-24.116248,0l-20.883748,-12.058119l-12.058122,-20.883748l0,-24.116248z" style="stroke-width: 8px; fill: rgb(73, 126, 71); stroke: rgb(60, 101, 58);"/>
  </g>
</svg>